{"title":"NRL 360 - 4-8-2016","uid":15547353,"size":1236935381,"categoryP":"video","categoryS":"tv_shows","magnet":"?xt=urn:btih:449903719ea1c4239817f2020cad73b1619bc720&amp;dn=NRL+360+-+4-8-2016&amp;tr=udp%3A%2F%2Ftracker.leechers-paradise.org%3A6969&amp;tr=udp%3A%2F%2Fzer0day.ch%3A1337&amp;tr=udp%3A%2F%2Fopen.demonii.com%3A1337&amp;tr=udp%3A%2F%2Ftracker.coppersurfer.tk%3A6969&amp;tr=udp%3A%2F%2Fexodus.desync.com%3A6969","seeders":2,"leechers":0,"uploader":"Bullrout","files":1,"time":1470988331,"description":"NRL 360 - 4-8-2016\r\n\r\nDragons v Broncos, Hayne's Return, Big League's Maria Tsialis &amp; Lara Pitt join the guys for More or Less, Farah's future &amp; team news. Plus, Geoff Toovey &amp; Billy Moore are part of Round 22's preview on Legends' Night.\r\n\r\nComplete name                            : NRL 360 - 4-8-2016.mkv\r\nFormat                                   : Matroska\r\nFormat version                           : Version 4 / Version 2\r\nFile size                                : 1.15 GiB\r\nDuration                                 : 50mn 1s\r\nOverall bit rate mode                    : Variable\r\nOverall bit rate                         : 3 297 Kbps\r\nEncoded date                             : UTC 2016-08-11 06:48:16\r\nWriting application                      : mkvmerge v9.3.1 ('Mask Machine') 64bit\r\nWriting library                          : libebml v1.3.4 + libmatroska v1.4.5\r\n\r\nVideo\r\nID                                       : 2\r\nFormat                                   : AVC\r\nFormat/Info                              : Advanced Video Codec\r\nFormat profile                           :   \r\nFormat settings, CABAC                   : Yes\r\nFormat settings, ReFrames                : 3 frames\r\nCodec ID                                 : V_MPEG4/ISO/AVC\r\nDuration                                 : 50mn 1s\r\nBit rate mode                            : Variable\r\nBit rate                                 : 2 911 Kbps\r\nMaximum bit rate                         : 3 000 Kbps\r\nWidth                                    : 1 280 pixels\r\nHeight                                   : 720 pixels\r\nDisplay aspect ratio                     : 16:9\r\nFrame rate mode                          : Constant\r\nFrame rate                               : 25.000 fps\r\nStandard                                 : PAL\r\nColor space                              : YUV\r\nChroma subsampling                       : 4:2:0\r\nBit depth                                : 8 bits\r\nScan type                                : Progressive\r\nBits/(Pixel*Frame)                       : 0.126\r\nStream size                              : 1.02 GiB (88%)\r\nWriting library                          : x264 core 112\r\nDefault                                  : Yes\r\nForced                                   : No\r\nColor range                              : Limited\r\nColor primaries                          : BT.709\r\nTransfer characteristics                 : BT.709\r\nMatrix coefficients                      : BT.709\r\n\r\nAudio\r\nID                                       : 1\r\nFormat                                   : AC-3\r\nFormat/Info                              : Audio Coding 3\r\nMode extension                           : CM (complete main)\r\nFormat settings, Endianness              : Big\r\nCodec ID                                 : A_AC3\r\nDuration                                 : 50mn 1s\r\nBit rate mode                            : Constant\r\nBit rate                                 : 384 Kbps\r\nChannel(s)                               : 6 channels\r\nChannel positions                        : Front: L C R, Side: L R, LFE\r\nSampling rate                            : 48.0 KHz\r\nFrame rate                               : 31.250 fps (1536 spf)\r\nCompression mode                         : Lossy\r\nStream size                              : 137 MiB (12%)\r\nDefault                                  : Yes\r\nForced                                   : No","torrent":{"xt":"urn:btih:449903719ea1c4239817f2020cad73b1619bc720","amp;dn":"NRL+360+-+4-8-2016","amp;tr":["udp%3A%2F%2Ftracker.leechers-paradise.org%3A6969","udp%3A%2F%2Fzer0day.ch%3A1337","udp%3A%2F%2Fopen.demonii.com%3A1337","udp%3A%2F%2Ftracker.coppersurfer.tk%3A6969","udp%3A%2F%2Fexodus.desync.com%3A6969"],"infoHash":"449903719ea1c4239817f2020cad73b1619bc720","infoHashBuffer":{"type":"Buffer","data":[68,153,3,113,158,161,196,35,152,23,242,2,12,173,115,177,97,155,199,32]},"announce":[],"urlList":[]}}